<svg xmlns="http://www.w3.org/2000/svg" viewBox="0 0 200 200" width="200" height="200">
  <path d="M100,30 C140,30 170,60 170,100 C170,140 140,170 100,170 C60,170 30,140 30,100 C30,60 60,30 100,30 Z" fill="#f5f5f5" stroke="#c50502" stroke-width="3"/>
  <path d="M100,50 C80,50 60,60 60,85 C60,95 65,100 75,110 C85,120 85,130 100,130 C115,130 115,120 125,110 C135,100 140,95 140,85 C140,60 120,50 100,50 Z" fill="none" stroke="#c50502" stroke-width="2.5"/>
  <path d="M60,85 C70,85 75,75 85,75 C95,75 95,85 100,85 C105,85 105,75 115,75 C125,75 130,85 140,85" fill="none" stroke="#c50502" stroke-width="2.5"/>
  <path d="M75,110 C85,110 90,100 100,100 C110,100 115,110 125,110" fill="none" stroke="#c50502" stroke-width="2.5"/>
</svg>